<?xml version="1.0" encoding="utf-8"?>
<!-- Generator: Adobe Illustrator 23.0.6, SVG Export Plug-In . SVG Version: 6.00 Build 0)  -->
<svg version="1.1" id="圖層_1" xmlns="http://www.w3.org/2000/svg" xmlns:xlink="http://www.w3.org/1999/xlink" x="0px" y="0px"
	 viewBox="0 0 283.46 283.46" style="enable-background:new 0 0 283.46 283.46;" xml:space="preserve">
<style type="text/css">
	.st0{fill:#ffffff;}
</style>
<g>
	<path class="st0" d="M111.91,25.13c1.64,0.46,3.27,0.97,4.93,1.38c5.75,1.43,11.51,2.83,17.27,4.22c0.47,0.11,0.97,0.16,1.45,0.16
		c2.14,0.01,3.22,0.96,3.19,3.13c-0.04,2.65-0.05,5.34-0.45,7.95c-2.02,13.38-4.15,26.74-6.27,40.11c-0.2,1.29-0.67,2.53-0.96,3.8
		c-0.09,0.41-0.01,0.85,0.28,1.48c0.51-0.47,1.07-0.9,1.53-1.41c2.08-2.34,5.57-3.08,8.61-2.33c5.19,1.29,10.44,2.32,15.69,3.37
		c2.96,0.59,5.98,0.91,8.95,1.5c2.39,0.47,2.96,1.28,2.87,3.7c-0.07,1.95-0.27,3.9-0.34,5.85c-0.02,0.52,0.26,1.05,0.4,1.57
		c0.44-0.24,1.01-0.38,1.3-0.74c3-3.76,7.12-3.72,11.21-3.06c7.66,1.25,15.28,2.76,22.91,4.2c1.15,0.22,2.31,0.54,3.39,1.01
		c1.19,0.52,1.8,1.45,1.86,2.9c0.07,1.66,0.64,3.29,0.77,4.95c0.24,3.18,0.34,6.37,0.46,9.55c0.07,1.88,0.98,2.8,2.72,2.21
		c4.35-1.48,8.75-1.16,13.11-0.45c9.77,1.6,19.41,3.78,28.74,7.17c5.2,1.89,10.09,4.47,14.76,7.44c1.8,1.15,1.98,2.23,0.72,3.94
		c-0.39,0.52-0.73,1.08-1.1,1.62c-1.35,1.97-3.23,2.64-5.56,2.02c-7.71-2.05-14.99-5.18-21.94-9.05c-1.7-0.95-3.26-0.79-4.94-0.51
		c-6.91,1.13-13.29,3.74-19.31,7.21c-3.15,1.82-6.13,3.92-9.16,5.92c-1.41,0.93-2.78,1.43-4.45,0.51c-0.67-0.37-1.59-0.24-2.39-0.4
		c-4.62-0.91-8.75-3.14-13.08-4.84c-0.08-0.03-0.15-0.08-0.22-0.1c-4.51-1.25-7.73-3.95-9.43-8.37c-0.08-0.21-0.27-0.39-0.55-0.77
		c-0.53,0.75-1.06,1.36-1.42,2.05c-0.84,1.63-1.59,3.31-2.4,4.97c-1.28,2.63-3.05,4.85-5.68,6.24c-2.24,1.18-4.48,1.11-6.85,0.17
		c-4.14-1.64-8.35-3.09-12.54-4.62c-0.81-0.29-1.61-0.6-2.42-0.88c-4.74-1.6-7.41-4.81-7.91-9.86c-0.33-3.32-0.91-6.62-1.42-10.19
		c-0.5,0.45-0.93,0.73-1.22,1.12c-4.06,5.34-8.18,10.63-12.11,16.05c-2.01,2.77-4.84,4.13-8.08,2.98
		c-6.62-2.36-13.2-4.84-19.76-7.36c-2.04-0.78-3-2.3-3.07-4.65c-0.14-4.47,0.87-8.77,1.32-13.16c0.42-4.14,0.55-8.31,0.79-12.47
		c0.02-0.3-0.09-0.6-0.19-1.22c-1.44,1.83-2.73,3.4-3.95,5.01c-8.4,11.03-16.78,22.08-25.18,33.11c-3.08,4.04-7.19,5.5-12.13,4.56
		c-5.58-1.06-11.14-2.21-16.72-3.31c-2.95-0.58-3.81-2.6-2-5c17.77-23.49,32.9-48.73,48.78-73.47
		c7.29-11.36,14.33-22.87,21.56-34.26c0.68-1.07,1.94-1.78,2.94-2.66C110.11,25.13,111.01,25.13,111.91,25.13z"/>
	<path class="st0" d="M33.77,130.95"/>
	<g>
		<path class="st0" d="M50.82,186.54l-6.18-2.95c-3.27-1.59-5.1-2.63-4.6-5.48c0.52-2.95,3.63-4.72,8.31-4.72
			c4.32,0,8.36,1.02,11.7,2.95l1.19,0.69l7.02-12.61l-1.19-0.65c-5.63-3.09-12.66-3.55-16.36-3.55c-13.35,0-24.05,7.82-26.03,19.03
			c-1.47,8.31,2.01,13.99,11.27,18.44l5.85,2.79c5.02,2.37,5.37,3.59,4.98,5.81c-0.86,4.87-5.75,5.9-9.71,5.9
			c-5.27,0-10.28-1.83-12.91-3.65l-1.25-0.86l-6.78,12.83l1.17,0.64c3.44,1.89,9.13,4.14,16.68,4.14c15.31,0,25.81-7.71,28.08-20.63
			C63.48,196.62,59.91,190.87,50.82,186.54z"/>
		<polygon class="st0" points="130.61,161.57 111.08,161.57 88.11,185.41 92.31,161.57 76.39,161.57 65.4,223.92 81.32,223.92 
			85.01,202.97 88.5,199.62 99.25,223.92 118.79,223.92 101.6,189.81 		"/>
		<polygon class="st0" points="122.01,223.92 137.93,223.92 148.92,161.57 133,161.57 		"/>
		<path class="st0" d="M187.65,173.65c4.55,0,9.01,1.25,12.91,3.61l1.19,0.72l7.41-12.96l-1.34-0.62
			c-4.39-2.02-9.86-4.18-19.28-4.18c-23.53,0-35.02,17.76-37.7,32.97c-1.76,9.97-0.18,18.23,4.55,23.87
			c4.53,5.4,11.59,8.13,20.98,8.13c8.03,0,17.15-1.97,22.23-3.8l0.74-0.27l5.42-30.75H178.7l-2.37,13.43h10.73l-1.36,7.7
			c-1.57,0.35-4.2,0.66-6.67,0.66c-3.89,0-7.09-1.36-9.25-3.95c-2.84-3.38-3.75-8.54-2.62-14.91
			C169.36,180.82,176.83,173.65,187.65,173.65z"/>
		<path class="st0" d="M265.62,167.31c-4.12-4.91-10.8-7.51-19.3-7.51c-13.38,0-30.52,8.55-34.77,32.63
			c-1.99,11.3-0.59,19.91,4.18,25.59c4.12,4.91,10.8,7.51,19.31,7.51c13.38,0,30.52-8.55,34.76-32.63
			C271.79,181.6,270.39,172.99,265.62,167.31z M227.81,192.9c2.3-13.05,7.86-19.67,16.53-19.67c3.29,0,5.69,0.95,7.32,2.89
			c2.57,3.06,3.22,8.7,1.88,16.31c-2.3,13.05-7.86,19.67-16.53,19.67c-3.29,0-5.69-0.95-7.32-2.9
			C227.12,206.14,226.47,200.5,227.81,192.9z"/>
	</g>
	<g>
		<path class="st0" d="M62,258.07l0.09-2.75c2.18,0.17,3.48-0.95,3.48-3.67v-10.48h3.7v10.78C69.28,255.18,67.46,258.4,62,258.07z"
			/>
		<path class="st0" d="M83.05,257.91l-1.04-3.18h-6.19l-1.04,3.18h-3.65l5.92-16.76h4.01l5.95,16.76H83.05z M79.38,246.62
			c-0.24-0.71-0.43-1.59-0.43-2.11H78.9c0,0.57-0.21,1.45-0.43,2.11l-1.73,5.33h4.36L79.38,246.62z"/>
		<path class="st0" d="M93.92,252.03h-1.38v5.88h-3.7v-16.73h4.81c1.33,0,7.18-0.21,7.18,5.19
			C100.84,251.22,96.79,252.03,93.92,252.03z M93.97,243.97h-1.42v5.14h1.47c1.38,0,3.18-0.43,3.18-2.58
			C97.19,244.25,95.2,243.97,93.97,243.97z"/>
		<path class="st0" d="M112.05,257.91l-1.04-3.18h-6.19l-1.04,3.18h-3.65l5.92-16.76h4.01l5.95,16.76H112.05z M108.38,246.62
			c-0.24-0.71-0.43-1.59-0.43-2.11h-0.05c0,0.57-0.21,1.45-0.43,2.11l-1.73,5.33h4.36L108.38,246.62z"/>
		<path class="st0" d="M128.76,257.91l-6.33-8.82c-0.62-0.85-1-1.73-1.09-2.09h-0.05v10.9h-3.44v-16.73h3.34l5.97,8.63
			c0.9,1.28,1.45,2.28,1.54,2.68h0.05v-11.3h3.41v16.73H128.76z"/>
		<path class="st0" d="M146.24,258.29c-1.99,0-3.6-0.57-4.69-1.11l1.02-2.89c0.92,0.57,2.49,1.09,4.03,1.09
			c1.56,0,2.75-0.54,2.75-1.97c0-0.95-0.5-1.4-1.97-2.04l-1.78-0.78c-2.47-1.09-3.79-2.47-3.79-4.76c0-2.89,2.37-5.02,6.04-5.02
			c1.49,0,3.2,0.26,4.57,0.95l-1.09,2.87c-1-0.52-2.23-0.88-3.63-0.88c-1.66,0-2.42,0.71-2.42,1.64c0,1.16,1,1.56,1.94,1.99
			l1.78,0.78c2.54,1.11,3.77,2.54,3.77,4.67C152.78,256.79,149.68,258.29,146.24,258.29z"/>
		<path class="st0" d="M163.04,248.64l6.3,9.27h-4.62l-4.38-7.09l-1.21,1.4v5.69h-3.7v-16.73h3.7v7.47l5.88-7.47h4.38L163.04,248.64
			z"/>
		<path class="st0" d="M171.31,257.91v-16.73h3.7v16.73H171.31z"/>
		<path class="st0" d="M192.8,258.26c-5.57,0-8.3-3.6-8.3-8.53c0-4.67,2.63-8.94,8.63-8.94c2.47,0,4.01,0.52,5.45,1.14l-1.16,2.94
			c-1.26-0.69-2.63-1.07-4.01-1.07c-3.51,0-5.1,2.51-5.1,5.83c0,3.63,2.06,5.73,4.72,5.73c0.81,0,1.73-0.12,2.16-0.26v-2.84h-3.01
			v-3.01h6.54v7.96C197.5,257.69,195.1,258.26,192.8,258.26z"/>
		<path class="st0" d="M209.27,258.33c-4.88,0-7.23-2.25-7.23-6.76v-10.4h3.72v10.29c0,2.2,0.97,3.86,3.6,3.86
			c2.61,0,3.48-1.66,3.48-3.86v-10.29h3.6v10.4C216.45,256.08,214.15,258.33,209.27,258.33z"/>
		<path class="st0" d="M219.86,257.91v-16.73h3.7v16.73H219.86z"/>
		<path class="st0" d="M231.78,257.91h-4.72v-16.73h4.88c3.2,0,10.14,0.12,10.14,7.99C242.09,256.48,236.9,257.91,231.78,257.91z
			 M232.47,244.09h-1.68v10.93h1.8c3.22,0,5.69-1.23,5.69-5.62C238.28,244.7,234.74,244.09,232.47,244.09z"/>
		<path class="st0" d="M244.86,257.91v-16.73h10.36v3.01h-6.64v3.44h6.4v2.89h-6.4v4.38h6.99v3.01H244.86z"/>
	</g>
</g>
</svg>
